<?xml version="1.0" encoding="utf-8"?>
<!-- Publii logo - https://getpublii.com  -->
<svg version="1.1" id="Layer_1" xmlns="http://www.w3.org/2000/svg" xmlns:xlink="http://www.w3.org/1999/xlink" x="0px" y="0px"
	 viewBox="0 0 510 202" style="enable-background:new 0 0 510 202;" xml:space="preserve">
<g>
	<path d="M448.054565,129.12706c0.01416,0.002197,0.02832,0.004333,0.042542,0.00647
		c4.302246,0.644775,8.312683-2.32019,8.957458-6.622498l0.004028,0.001038c0.600952-4.210022,0.300964-10.525024-6.304016-11.42804
		c-6.299988-0.901978-9.299988,6.616028-9.299988,9.322021C441.154602,123.413071,442.354553,128.227036,448.054565,129.12706z"/>
	<path d="M284.049561,124.613022c-23.987976-3-34.483017,40.600037-34.483017,40.900024
		c2.697998-61.643982,17.991013-117.575012,17.691025-117.575012c1.799011-6.615967-9.29303-17.140991-14.39299-6.615967
		c-6.893005,73.372009-13.492981,113.665955-13.492981,113.665955s-0.302307,1.743164-0.666138,4.516724
		c-6.882812,12.334351-16.706177,26.243591-31.685852,24.65033c-7.799988-0.902039-10.200012-9.623047-10.200012-18.644043
		c0.599976-10.824951,0.599976-17.740967,1.200012-21.04895c1.200012-4.812012,4.200012-7.822998-2.400024-9.623047
		c-3.599976-0.901978-6.299988,0.902039-7.5,6.014038c-1.199951,4.810974-2.099976,9.320984-3.299988,14.132996
		c-1.799011,7.21698-10.490967,27.963989-18.291016,27.063965c-11.399963-1.503967-5.399963-29.169006-2.399963-39.393005
		c1.799988-6.013977,4.799988-10.828979-0.600037-12.328979c-6.599976-2.10498-7.799988,2.710999-8.099976,4.510986
		c-0.900024,3.007019-4.799988,14.434021-6.600037,26.763c-1.799988,12.329041,3.298035,29.472046,15.592041,30.671997
		c14.988953,1.203003,22.488953-21.950989,22.488953-21.950989s3.298035,22.853027,23.088013,22.552979
		c10.632935-0.204651,20.428223-9.364319,27.49469-18.507385c-0.166626,6.626831,0.267883,13.53717,2.179321,18.207397
		c4.5,11.126038,11.099976,3.307007,11.099976,3.007019c0,0.299988,7.189011,5.107971,14.386032,5.408997
		c7.19696,0.300964,27.28595-9.622009,31.485962-37.286987C297.542603,157.991013,302.341553,127.019028,284.049561,124.613022z
		 M264.265564,191.072067c-8.693954,0.300964-10.793991-8.119995-10.793991-8.420044h-0.000977
		c0,0,9.594955-46.908997,27.286972-47.811951C299.64856,133.63707,286.155579,189.872055,264.265564,191.072067z"/>
	<path d="M390.186584,129.12706c0.01416,0.002197,0.02832,0.004333,0.04248,0.00647
		c4.302307,0.644775,8.312683-2.32019,8.95752-6.622498l0.003967,0.001038c0.598999-4.210022,0.299011-10.525024-6.309998-11.42804
		c-6.294006-0.901978-9.294006,6.616028-9.294006,9.322021C383.28656,123.413071,384.486572,128.227036,390.186584,129.12706z"/>
	<path d="M216.599564,51.846058c5.39801-25.258972-32.083984-47.814026-63.268982-48.414001
		c-29.086006-0.601013-41.679024,1.804993-68.367012,9.622986c2.700012-10.224976-0.599976-9.324951-3.299988-10.524963
		c-4.5-2.105042-8.100037-3.608032-9.299988,6.615967c-0.300049,1.504028-0.600037,4.210022-1.200012,7.819032
		c-18.890991,6.013977-32.085022,11.72699-53.074036,23.755981c-8.09198,4.51001-16.791992,9.020996-17.09198,18.041992
		c0,3.007019,2.099976,13.231014,5.700012,10.523983c2.700012-1.803955-0.900024-4.208984,1.799988-7.817989
		c6.893005-9.020996,34.47998-24.055969,60.872986-33.075989c-3.599976,20.147034-8.399963,50.518002-8.699951,67.358032
		c0,7.21698-0.300049,16.839966-0.900024,26.763c-3.599976-0.902039-5.099976-2.108032-6.299988-3.307983
		c-1.799988-1.804016-3,0.300964-3,2.405945c0,0.300049-0.900024,4.811035,8.700012,9.923035
		c-0.900024,19.542969-2.100037,42.099976-2.100037,43.899963c0,0.902039-2.399963,16.238037,7.799988,19.546021
		c9.900024,3.307983,6.900024-2.10498,6.600037-5.713989c0-2.705994-1.5-30.971985-1.5-54.427002
		C97.556587,137.546066,201.307571,122.211044,216.599564,51.846058z M69.957588,124.618088
		c0.299988-9.623047,0.899963-18.945007,1.799988-26.763c3.599976-26.162048,6-57.134029,9.599976-73.372009
		c24.588013-8.119019,43.179016-12.627015,72.265022-11.427003c16.492004,0.601013,56.975037,4.810975,50.975037,35.783997
		C191.706558,114.694077,101.748543,128.526047,69.957588,124.618088z"/>
	<path d="M505.038574,147.768051c-6.897034,12.630005-21.889038,39.695007-37.782043,40.294983
		c-23.388977,1.200012-11.993958-41.200012-11.993958-42.700012c0-5.411011-9.294983-6.013-11.39502-0.599976
		c0,0-1.122742,6.33075-2.024414,12.448975c-7.883545,13.349487-19.886169,30.376465-32.456604,30.851013
		c-23.388977,1.200012-11.993958-41.200012-11.993958-42.700012c0-5.411011-9.294983-6.013-11.39502-0.599976
		c0,0-1.331604,7.508789-2.259094,14.074341c-7.962036,13.420593-20.396729,30.130798-37.318848,30.134644
		c-8.695007,0-16.189026-5.112-21.588989-13.531982c9.594971-11.125977,32.97998-50.518005,38.679993-90.512024
		c4.497986-29.467953-0.89801-47.512936-15.592041-48.41296c-23.088989-1.507996-40.481018,58.031002-40.781006,87.200012
		c-0.299011,33.073975,0.598999,72.473999,35.981995,74.273987c19.454163,1.005249,32.995789-13.452454,40.466003-24.402039
		c1.780029,10.124695,7.727234,24.617493,24.601013,24.401001c14.098999,0,26.088745-14.106934,33.192993-24.862305
		c1.677856,10.139343,7.54071,25.082092,24.674988,24.862305c21.289978,0,37.781982-32.174988,39.883972-36.386963
		C511.938538,149.568039,507.738586,142.656052,505.038574,147.768051z M316.133545,124.317062
		c3.899048-40.595032,20.092041-77.580017,31.485046-76.679993c11.393982,0.601013,6.597961,35.782955,4.498962,43.599972
		c-10.794006,42.700012-15.59198,54.427002-31.184021,76.97998C317.033569,157.394028,315.233582,136.646042,316.133545,124.317062z
		"/>
</g>
</svg>
