<svg xmlns="http://www.w3.org/2000/svg" version="1.1" viewBox="0 0 9.7259998 3.9560001" height="3.9560001mm" width="9.7259998mm"><g transform="translate(0,-293.044)"><path d="m 9.1334164,293.49193 c -1.6422229,-0.24526 -3.2984127,-0.45041 -4.9612577,-0.4448 -0.7571537,0.0118 -1.5243709,0.13886 -2.196424,0.50462 -0.283529,0.093 -0.6795335,0.36991 -0.9174014,0.30035 0,-0.1377 0,-0.27539 0,-0.41309 -0.35277776,0 -0.70555551,0 -1.058333271866608,0 0,1.08303 0,2.16606 0,3.24909 0.352777761866608,0 0.705555511866608,0 1.058333271866608,0 -0.018552,-0.19293 -0.022312,-0.37957 0.2356444,-0.21861 0.8579277,0.22409 1.7037735,0.5857 2.6086264,0.52834 0.42766,0.0146 0.8442444,-0.17513 1.261401,-0.0372 0.4181366,0.0824 0.9829984,-0.0793 1.0546952,-0.56208 0.1879788,-0.21325 0.7989502,-0.20725 0.8059871,-0.65765 -0.1664631,-0.43416 0.5861141,-0.50823 0.4279637,-0.97962 -0.0084,-0.19336 -0.4934002,-0.41887 -0.087643,-0.36828 0.646987,-0.0301 1.3000225,0.0276 1.9423724,-0.071 0.3625361,6.6e-4 0.5967846,-0.5038 0.2363885,-0.70137 -0.1236421,-0.0759 -0.2685667,-0.10797 -0.4103524,-0.12874 z m -1.8838333,1.397 c -0.176739,0.442 -0.7018993,0.61645 -1.1403954,0.6553 -0.4953689,0.0498 -0.932969,-0.2434 -1.3466878,-0.47277 -0.2932219,-0.1 -0.3373301,-0.49062 0.050271,-0.33071 0.3725822,0.18332 0.690558,0.49281 1.1138958,0.57147 0.2970717,0.12298 0.8013696,-0.0254 0.6667497,-0.42333 -0.029576,-0.22526 -0.6591866,-0.47727 -0.1561042,-0.51853 0.2989592,0.0483 0.7347496,0.19172 0.8122708,0.51857 z m 1.8309167,-0.74083 c -1.1304613,0.0861 -2.2682963,0.0489 -3.3972499,-0.0423 -0.3287259,-0.18481 -0.6007776,-0.51495 -1.0062022,-0.53082 -0.4308888,-0.0562 -0.8661645,-0.10631 -1.2996415,-0.11936 -0.2455342,0.24499 0.3755459,0.17073 0.529828,0.21572 0.3986907,0.0276 0.8115017,0.0941 1.1654898,0.28577 0.3883128,0.33273 0.8786734,0.53412 1.2370922,0.8999 0.1976824,0.5022 -0.5573274,0.22033 -0.769276,0.0671 -0.3198247,-0.11952 -0.5518933,-0.47805 -0.9151241,-0.43724 -0.3318914,-0.003 -0.6644063,0.0117 -0.9953328,-0.0212 -0.1902566,0.10419 0.037223,0.28951 -0.1706563,0.42486 -0.288771,0.35012 -0.6718428,0.61598 -1.0761926,0.81344 -0.086199,0.42022 0.576766,-0.0358 0.7398411,-0.16253 0.2883553,-0.23149 0.5717774,-0.49578 0.7186744,-0.84291 0.2502168,-0.15234 0.6171542,0.16475 0.2282031,0.25795 -0.3957968,0.14 0.018171,0.62274 -0.3300673,0.78002 -0.046068,0.32935 0.2303027,0.60466 0.4389606,0.82815 0.4218066,0.24806 -0.326091,0.18401 -0.5234616,0.20373 -0.88564,0.003 -1.6777825,-0.44935 -2.5347083,-0.5978 -0.12899359,-0.0198 -0.032556,-0.26152 -0.062342,-0.37899 0,-0.55839 0,-1.11677 0,-1.67516 0.462385,-0.004 0.8724889,-0.27053 1.285844,-0.44759 0.7806978,-0.41478 1.6884703,-0.44899 2.5506142,-0.37261 1.4358839,0.0801 2.8732136,0.19418 4.2915416,0.43658 0.4289646,0.085 0.2515375,0.43486 -0.105834,0.41527 z m -2.3389166,1.51341 c 0.097699,0.41362 -0.4475862,0.48402 -0.7435102,0.48943 -0.6506355,0.0197 -1.2896683,-0.25607 -1.7841287,-0.66331 -0.3598913,-0.35882 0.2771109,-0.56043 0.4712887,-0.2398 0.527227,0.36941 1.1972106,0.63845 1.8420374,0.43464 0.053553,0.0248 0.2532774,-0.15802 0.2143128,-0.021 z m -0.8149167,0.762 c -0.1307134,0.41795 -0.6622495,0.37963 -0.9997115,0.28554 -0.424531,-0.1036 -0.8099958,-0.41902 -0.9719304,-0.82479 0.1294242,-0.38374 0.5444154,0.0543 0.7651419,0.14236 0.3690338,0.20578 0.7785499,0.3649 1.2065,0.36512 v 0.021 z m -5.12233316,0 c -0.18697222,0 -0.37394443,0 -0.56091665,0 0,-0.91017 0,-1.82033 0,-2.7305 0.18697222,0 0.37394443,0 0.56091665,0 0,0.91017 0,1.82033 0,2.7305 z"/></g></svg>
