<?xml version="1.0" encoding="UTF-8" standalone="no"?><!DOCTYPE svg PUBLIC "-//W3C//DTD SVG 1.1//EN" "http://www.w3.org/Graphics/SVG/1.1/DTD/svg11.dtd"><svg width="100%" height="100%" viewBox="0 0 1517 305" version="1.1" xmlns="http://www.w3.org/2000/svg" xmlns:xlink="http://www.w3.org/1999/xlink" xml:space="preserve" xmlns:serif="http://www.serif.com/" style="fill-rule:evenodd;clip-rule:evenodd;stroke-linecap:round;stroke-linejoin:round;stroke-miterlimit:1.5;"><rect id="Artboard2" x="0" y="0" width="1515.78" height="303.897" style="fill:none;"/><clipPath id="_clip1"><rect x="0" y="0" width="1515.78" height="303.897"/></clipPath><g clip-path="url(#_clip1)"><path d="M423.322,202.934c4.752,0 8.96,-0.407 12.626,-1.222c3.665,-0.814 7.127,-1.9 10.385,-3.258l0,-22.501l-14.662,0c-2.172,0 -3.869,-0.577 -5.09,-1.731c-1.222,-1.154 -1.833,-2.613 -1.833,-4.378l0,-18.938l52.741,0l0,62.617c-3.802,2.783 -7.755,5.176 -11.862,7.178c-4.107,2.002 -8.485,3.649 -13.134,4.938c-4.65,1.29 -9.605,2.24 -14.865,2.851c-5.261,0.611 -10.912,0.916 -16.953,0.916c-10.86,0 -20.906,-1.917 -30.137,-5.752c-9.232,-3.835 -17.224,-9.13 -23.978,-15.884c-6.754,-6.753 -12.048,-14.763 -15.883,-24.028c-3.835,-9.265 -5.753,-19.328 -5.753,-30.189c0,-11.064 1.833,-21.228 5.498,-30.493c3.666,-9.266 8.909,-17.258 15.731,-23.978c6.821,-6.72 15.069,-11.947 24.741,-15.68c9.673,-3.733 20.482,-5.6 32.428,-5.6c6.177,0 11.981,0.509 17.411,1.528c5.43,1.018 10.436,2.409 15.018,4.174c4.582,1.765 8.773,3.869 12.574,6.313c3.801,2.443 7.195,5.09 10.182,7.941l-9.978,15.171c-0.95,1.425 -2.087,2.545 -3.411,3.36c-1.324,0.814 -2.766,1.222 -4.327,1.222c-2.037,0 -4.141,-0.679 -6.313,-2.037c-2.715,-1.629 -5.277,-3.037 -7.687,-4.225c-2.41,-1.188 -4.87,-2.155 -7.382,-2.902c-2.511,-0.747 -5.158,-1.29 -7.941,-1.629c-2.783,-0.339 -5.906,-0.509 -9.367,-0.509c-6.449,0 -12.252,1.137 -17.411,3.411c-5.159,2.274 -9.554,5.481 -13.185,9.621c-3.631,4.141 -6.431,9.113 -8.4,14.916c-1.968,5.804 -2.953,12.269 -2.953,19.396c0,7.874 1.087,14.866 3.259,20.975c2.172,6.108 5.175,11.267 9.01,15.476c3.835,4.208 8.383,7.415 13.644,9.621c5.26,2.206 11.013,3.309 17.257,3.309Z" style="fill-rule:nonzero;"/><path d="M541.429,120.565c8.01,0 15.306,1.256 21.891,3.767c6.584,2.512 12.234,6.109 16.952,10.793c4.717,4.683 8.383,10.368 10.996,17.054c2.613,6.686 3.92,14.203 3.92,22.552c0,8.417 -1.307,16.002 -3.92,22.756c-2.613,6.754 -6.279,12.489 -10.996,17.207c-4.718,4.717 -10.368,8.349 -16.952,10.894c-6.585,2.546 -13.881,3.818 -21.891,3.818c-8.077,0 -15.425,-1.272 -22.043,-3.818c-6.618,-2.545 -12.32,-6.177 -17.105,-10.894c-4.786,-4.718 -8.485,-10.453 -11.098,-17.207c-2.613,-6.754 -3.92,-14.339 -3.92,-22.756c0,-8.349 1.307,-15.866 3.92,-22.552c2.613,-6.686 6.312,-12.371 11.098,-17.054c4.785,-4.684 10.487,-8.281 17.105,-10.793c6.618,-2.511 13.966,-3.767 22.043,-3.767Zm0,85.424c7.263,0 12.608,-2.563 16.036,-7.687c3.428,-5.125 5.142,-12.914 5.142,-23.367c0,-10.453 -1.714,-18.225 -5.142,-23.316c-3.428,-5.091 -8.773,-7.636 -16.036,-7.636c-7.466,0 -12.931,2.545 -16.392,7.636c-3.462,5.091 -5.193,12.863 -5.193,23.316c0,10.453 1.731,18.242 5.193,23.367c3.461,5.124 8.926,7.687 16.392,7.687Z" style="fill-rule:nonzero;"/><path d="M681.324,227.777c-2.986,0 -5.243,-0.407 -6.77,-1.221c-1.528,-0.815 -2.8,-2.512 -3.819,-5.091l-2.24,-5.804c-2.647,2.24 -5.192,4.209 -7.636,5.906c-2.443,1.696 -4.972,3.139 -7.585,4.327c-2.613,1.188 -5.396,2.07 -8.349,2.647c-2.953,0.577 -6.228,0.865 -9.825,0.865c-4.819,0 -9.198,-0.627 -13.134,-1.883c-3.937,-1.256 -7.28,-3.106 -10.029,-5.549c-2.749,-2.444 -4.871,-5.481 -6.364,-9.113c-1.493,-3.631 -2.24,-7.823 -2.24,-12.574c0,-3.733 0.95,-7.568 2.851,-11.505c1.901,-3.937 5.193,-7.518 9.876,-10.742c4.684,-3.224 10.996,-5.922 18.938,-8.094c7.942,-2.172 17.954,-3.394 30.036,-3.666l0,-4.479c0,-6.177 -1.273,-10.64 -3.818,-13.389c-2.546,-2.749 -6.16,-4.124 -10.844,-4.124c-3.733,0 -6.788,0.407 -9.163,1.222c-2.376,0.814 -4.497,1.731 -6.364,2.749c-1.866,1.018 -3.682,1.935 -5.447,2.749c-1.765,0.815 -3.869,1.222 -6.312,1.222c-2.173,0 -4.022,-0.526 -5.549,-1.578c-1.528,-1.052 -2.733,-2.359 -3.615,-3.92l-5.702,-9.876c6.381,-5.634 13.457,-9.826 21.229,-12.575c7.772,-2.749 16.104,-4.123 24.996,-4.123c6.38,0 12.133,1.035 17.258,3.105c5.124,2.07 9.469,4.955 13.032,8.655c3.564,3.699 6.296,8.094 8.196,13.185c1.901,5.091 2.851,10.656 2.851,16.698l0,65.976l-14.458,0Zm-36.246,-19.243c4.072,0 7.636,-0.713 10.69,-2.138c3.055,-1.425 6.143,-3.733 9.266,-6.924l0,-14.661c-6.313,0.271 -11.505,0.814 -15.578,1.629c-4.073,0.815 -7.297,1.833 -9.673,3.054c-2.375,1.222 -4.021,2.614 -4.938,4.175c-0.916,1.561 -1.374,3.258 -1.374,5.091c0,3.597 0.984,6.126 2.952,7.585c1.969,1.459 4.854,2.189 8.655,2.189Z" style="fill-rule:nonzero;"/><path d="M751.17,229.406c-5.023,0 -9.452,-0.729 -13.287,-2.189c-3.835,-1.459 -7.059,-3.529 -9.672,-6.21c-2.614,-2.682 -4.599,-5.923 -5.957,-9.724c-1.357,-3.801 -2.036,-8.043 -2.036,-12.727l0,-54.573l-8.96,0c-1.629,0 -3.02,-0.526 -4.174,-1.578c-1.154,-1.053 -1.731,-2.597 -1.731,-4.633l0,-12.32l16.8,-3.258l6.21,-25.759c0.815,-3.258 3.123,-4.888 6.924,-4.888l16.494,0l0,30.851l25.658,0l0,21.585l-25.658,0l0,52.435c0,2.444 0.594,4.463 1.782,6.058c1.188,1.595 2.902,2.393 5.141,2.393c1.154,0 2.122,-0.119 2.902,-0.357c0.781,-0.237 1.46,-0.509 2.037,-0.814c0.577,-0.306 1.12,-0.577 1.629,-0.815c0.509,-0.237 1.103,-0.356 1.781,-0.356c0.951,0 1.714,0.221 2.291,0.662c0.577,0.441 1.171,1.137 1.782,2.087l9.571,14.967c-4.073,3.054 -8.655,5.345 -13.745,6.873c-5.091,1.527 -10.352,2.29 -15.782,2.29Z" style="fill-rule:nonzero;"/><path d="M891.167,189.393c0.815,0 1.629,0.152 2.444,0.458c0.814,0.305 1.595,0.831 2.341,1.578l13.644,14.356c-5.973,7.806 -13.457,13.694 -22.451,17.665c-8.993,3.971 -19.633,5.956 -31.919,5.956c-11.268,0 -21.364,-1.917 -30.29,-5.752c-8.926,-3.835 -16.494,-9.13 -22.705,-15.884c-6.211,-6.753 -10.979,-14.763 -14.305,-24.028c-3.326,-9.265 -4.989,-19.328 -4.989,-30.189c0,-11.064 1.9,-21.228 5.701,-30.493c3.802,-9.266 9.113,-17.258 15.935,-23.978c6.821,-6.72 14.984,-11.947 24.486,-15.68c9.503,-3.733 19.99,-5.6 31.461,-5.6c5.566,0 10.81,0.492 15.731,1.477c4.921,0.984 9.52,2.341 13.796,4.072c4.276,1.731 8.213,3.801 11.811,6.211c3.597,2.41 6.788,5.074 9.571,7.993l-11.608,15.577c-0.746,0.951 -1.629,1.816 -2.647,2.597c-1.018,0.78 -2.443,1.171 -4.276,1.171c-1.222,0 -2.376,-0.272 -3.462,-0.815c-1.086,-0.543 -2.24,-1.205 -3.461,-1.985c-1.222,-0.781 -2.563,-1.629 -4.022,-2.546c-1.46,-0.916 -3.19,-1.764 -5.193,-2.545c-2.002,-0.781 -4.344,-1.442 -7.025,-1.985c-2.681,-0.544 -5.821,-0.815 -9.418,-0.815c-6.245,0 -11.947,1.103 -17.105,3.309c-5.159,2.206 -9.588,5.362 -13.287,9.469c-3.7,4.106 -6.584,9.078 -8.655,14.916c-2.07,5.837 -3.105,12.388 -3.105,19.65c0,7.603 1.035,14.356 3.105,20.262c2.071,5.905 4.888,10.877 8.451,14.916c3.564,4.039 7.721,7.11 12.473,9.214c4.751,2.104 9.842,3.157 15.272,3.157c3.122,0 5.973,-0.153 8.553,-0.459c2.579,-0.305 4.972,-0.831 7.178,-1.578c2.206,-0.746 4.31,-1.714 6.312,-2.902c2.003,-1.187 4.022,-2.664 6.058,-4.429c0.815,-0.678 1.697,-1.238 2.647,-1.68c0.951,-0.441 1.935,-0.661 2.953,-0.661Z" style="fill-rule:nonzero;"/><path d="M968.242,120.565c8.009,0 15.306,1.256 21.89,3.767c6.584,2.512 12.235,6.109 16.953,10.793c4.717,4.683 8.383,10.368 10.996,17.054c2.613,6.686 3.92,14.203 3.92,22.552c0,8.417 -1.307,16.002 -3.92,22.756c-2.613,6.754 -6.279,12.489 -10.996,17.207c-4.718,4.717 -10.369,8.349 -16.953,10.894c-6.584,2.546 -13.881,3.818 -21.89,3.818c-8.078,0 -15.425,-1.272 -22.043,-3.818c-6.618,-2.545 -12.32,-6.177 -17.105,-10.894c-4.786,-4.718 -8.485,-10.453 -11.098,-17.207c-2.614,-6.754 -3.92,-14.339 -3.92,-22.756c0,-8.349 1.306,-15.866 3.92,-22.552c2.613,-6.686 6.312,-12.371 11.098,-17.054c4.785,-4.684 10.487,-8.281 17.105,-10.793c6.618,-2.511 13.965,-3.767 22.043,-3.767Zm0,85.424c7.263,0 12.608,-2.563 16.036,-7.687c3.428,-5.125 5.142,-12.914 5.142,-23.367c0,-10.453 -1.714,-18.225 -5.142,-23.316c-3.428,-5.091 -8.773,-7.636 -16.036,-7.636c-7.467,0 -12.931,2.545 -16.393,7.636c-3.461,5.091 -5.192,12.863 -5.192,23.316c0,10.453 1.731,18.242 5.192,23.367c3.462,5.124 8.926,7.687 16.393,7.687Z" style="fill-rule:nonzero;"/><path d="M1064.76,122.194l0,66.995c0,5.227 1.188,9.265 3.564,12.116c2.376,2.851 5.871,4.276 10.487,4.276c3.462,0 6.703,-0.712 9.723,-2.138c3.021,-1.425 5.957,-3.428 8.808,-6.007l0,-75.242l31.563,0l0,105.583l-19.549,0c-3.937,0 -6.516,-1.764 -7.738,-5.294l-1.935,-6.109c-2.036,1.968 -4.14,3.75 -6.312,5.345c-2.172,1.595 -4.497,2.953 -6.975,4.073c-2.477,1.12 -5.141,2.002 -7.992,2.647c-2.851,0.645 -5.973,0.967 -9.367,0.967c-5.77,0 -10.878,-1.001 -15.324,-3.003c-4.446,-2.003 -8.196,-4.803 -11.25,-8.4c-3.055,-3.598 -5.363,-7.84 -6.924,-12.727c-1.561,-4.887 -2.342,-10.25 -2.342,-16.087l0,-66.995l31.563,0Z" style="fill-rule:nonzero;"/><path d="M1149.27,227.777l0,-105.583l19.548,0c1.969,0 3.615,0.441 4.939,1.324c1.323,0.882 2.256,2.206 2.799,3.971l1.833,6.108c2.036,-1.9 4.141,-3.665 6.313,-5.294c2.172,-1.629 4.497,-3.004 6.974,-4.123c2.478,-1.12 5.159,-2.003 8.044,-2.648c2.884,-0.645 6.024,-0.967 9.418,-0.967c5.769,0 10.877,1.001 15.323,3.004c4.446,2.002 8.196,4.785 11.251,8.349c3.054,3.563 5.362,7.805 6.923,12.727c1.561,4.921 2.342,10.266 2.342,16.036l0,67.096l-31.563,0l0,-67.096c0,-5.159 -1.188,-9.181 -3.564,-12.066c-2.375,-2.884 -5.871,-4.327 -10.487,-4.327c-3.462,0 -6.72,0.747 -9.774,2.24c-3.055,1.493 -5.973,3.496 -8.756,6.007l0,75.242l-31.563,0Z" style="fill-rule:nonzero;"/><path d="M1300.37,229.406c-5.023,0 -9.452,-0.729 -13.287,-2.189c-3.835,-1.459 -7.06,-3.529 -9.673,-6.21c-2.613,-2.682 -4.598,-5.923 -5.956,-9.724c-1.358,-3.801 -2.036,-8.043 -2.036,-12.727l0,-54.573l-8.96,0c-1.629,0 -3.021,-0.526 -4.175,-1.578c-1.154,-1.053 -1.73,-2.597 -1.73,-4.633l0,-12.32l16.799,-3.258l6.211,-25.759c0.814,-3.258 3.122,-4.888 6.923,-4.888l16.495,0l0,30.851l25.657,0l0,21.585l-25.657,0l0,52.435c0,2.444 0.594,4.463 1.781,6.058c1.188,1.595 2.902,2.393 5.142,2.393c1.154,0 2.121,-0.119 2.902,-0.357c0.78,-0.237 1.459,-0.509 2.036,-0.814c0.577,-0.306 1.12,-0.577 1.629,-0.815c0.509,-0.237 1.103,-0.356 1.782,-0.356c0.95,0 1.714,0.221 2.291,0.662c0.577,0.441 1.171,1.137 1.782,2.087l9.57,14.967c-4.072,3.054 -8.654,5.345 -13.745,6.873c-5.091,1.527 -10.351,2.29 -15.781,2.29Z" style="fill-rule:nonzero;"/><path d="M1385.89,120.565c6.992,0 13.389,1.086 19.193,3.258c5.803,2.172 10.792,5.329 14.966,9.469c4.175,4.141 7.433,9.214 9.775,15.222c2.342,6.007 3.512,12.811 3.512,20.414c0,2.375 -0.101,4.31 -0.305,5.803c-0.204,1.493 -0.577,2.681 -1.12,3.564c-0.543,0.882 -1.273,1.493 -2.189,1.832c-0.916,0.34 -2.087,0.509 -3.513,0.509l-60.886,0c1.019,8.825 3.7,15.222 8.044,19.193c4.344,3.971 9.944,5.956 16.799,5.956c3.666,0 6.822,-0.441 9.469,-1.324c2.648,-0.882 5.006,-1.866 7.077,-2.952c2.07,-1.086 3.97,-2.07 5.701,-2.953c1.731,-0.882 3.547,-1.323 5.447,-1.323c2.512,0 4.412,0.916 5.702,2.749l9.164,11.301c-3.259,3.733 -6.771,6.771 -10.538,9.113c-3.768,2.341 -7.637,4.174 -11.607,5.498c-3.971,1.323 -7.942,2.24 -11.913,2.749c-3.971,0.509 -7.755,0.763 -11.352,0.763c-7.399,0 -14.339,-1.204 -20.822,-3.614c-6.482,-2.41 -12.15,-5.99 -17.003,-10.742c-4.853,-4.751 -8.688,-10.656 -11.505,-17.716c-2.817,-7.059 -4.226,-15.272 -4.226,-24.639c0,-7.059 1.205,-13.745 3.615,-20.058c2.41,-6.313 5.871,-11.845 10.385,-16.596c4.514,-4.751 9.978,-8.519 16.392,-11.302c6.415,-2.782 13.661,-4.174 21.738,-4.174Zm0.611,21.789c-6.041,0 -10.758,1.714 -14.152,5.141c-3.394,3.428 -5.634,8.366 -6.72,14.815l39.403,0c0,-2.512 -0.323,-4.955 -0.968,-7.331c-0.644,-2.376 -1.697,-4.497 -3.156,-6.364c-1.459,-1.866 -3.377,-3.377 -5.753,-4.53c-2.375,-1.154 -5.26,-1.731 -8.654,-1.731Z" style="fill-rule:nonzero;"/><path d="M1447.39,227.777l0,-105.583l18.734,0c1.561,0 2.868,0.136 3.92,0.407c1.052,0.272 1.935,0.696 2.647,1.273c0.713,0.577 1.256,1.341 1.629,2.291c0.374,0.95 0.696,2.104 0.968,3.462l1.731,9.876c3.869,-5.973 8.213,-10.691 13.032,-14.153c4.819,-3.461 10.08,-5.192 15.781,-5.192c4.82,0 8.689,1.154 11.607,3.462l-4.072,23.214c-0.272,1.425 -0.815,2.426 -1.629,3.003c-0.815,0.577 -1.901,0.866 -3.258,0.866c-1.154,0 -2.512,-0.153 -4.073,-0.459c-1.561,-0.305 -3.53,-0.458 -5.905,-0.458c-8.281,0 -14.798,4.412 -19.549,13.236l0,64.755l-31.563,0Z" style="fill-rule:nonzero;"/><path d="M19.253,168.372l84.053,-95.945c0,0 -88.462,-40.427 -85.81,-41.828c129.367,-68.354 262.95,151.792 262.95,151.792l-17.616,46.453c0,0 -120.532,-0.36 -136.496,-53.705" style="fill:none;stroke:#000;stroke-width:31.56px;"/><path d="M128.265,289.771c-0.031,-25.725 27.226,-83.136 27.226,-83.136" style="fill:none;stroke:#000;stroke-width:31.56px;"/></g></svg>