<?xml version="1.0" standalone="no"?>
<!DOCTYPE svg PUBLIC "-//W3C//DTD SVG 20010904//EN"
 "http://www.w3.org/TR/2001/REC-SVG-20010904/DTD/svg10.dtd">
<svg version="1.0" xmlns="http://www.w3.org/2000/svg"
 width="572.000000pt" height="572.000000pt" viewBox="0 0 572.000000 572.000000"
 preserveAspectRatio="xMidYMid meet">
<metadata>
Created by potrace 1.11, written by Peter Selinger 2001-2013
</metadata>
<g transform="translate(0.000000,572.000000) scale(0.100000,-0.100000)"
fill="#000000" stroke="none">
<path d="M1170 5713 c-41 -5 -211 -30 -255 -38 -257 -50 -639 -202 -728 -291
-54 -54 -80 -117 -83 -199 -5 -133 53 -221 199 -307 80 -46 856 -428 871 -428
2 0 64 -29 139 -64 74 -36 152 -72 172 -80 24 -10 34 -20 29 -28 -6 -9 -462
-531 -605 -693 -15 -16 -64 -73 -109 -125 -45 -52 -97 -111 -114 -130 -17 -19
-121 -138 -231 -264 -110 -126 -215 -246 -233 -265 -89 -98 -113 -233 -59
-344 30 -60 74 -104 140 -139 34 -19 58 -23 127 -23 76 0 90 3 135 29 59 35
71 47 284 292 91 104 172 196 180 205 9 9 27 29 41 45 72 84 217 250 230 264
18 20 38 42 210 240 74 85 139 160 145 166 11 11 14 15 311 354 191 218 212
242 259 295 80 90 101 226 51 329 -46 94 -78 116 -381 256 -33 15 -104 49
-158 74 -55 25 -100 46 -102 46 -1 0 -50 22 -107 49 -263 124 -358 170 -358
174 0 11 313 14 400 3 415 -52 809 -209 1240 -492 108 -71 325 -226 340 -244
3 -3 25 -21 50 -40 50 -38 214 -178 300 -255 69 -63 417 -410 490 -490 31 -33
89 -98 130 -145 41 -46 80 -90 85 -96 6 -6 26 -30 45 -54 19 -24 71 -87 115
-139 44 -53 102 -126 130 -161 27 -36 52 -67 55 -70 21 -20 362 -491 403 -557
9 -15 26 -41 36 -58 l19 -30 -97 -255 c-53 -140 -100 -260 -104 -266 -4 -6
-21 -10 -39 -9 -18 2 -76 6 -128 10 -52 3 -106 8 -120 10 -14 2 -52 6 -85 10
-71 7 -130 15 -166 21 -15 2 -47 6 -70 9 -40 5 -117 18 -179 30 -14 3 -41 8
-60 11 -92 16 -339 80 -458 120 -235 77 -402 158 -540 262 -120 90 -169 154
-245 322 -40 89 -82 134 -157 167 -197 89 -416 -59 -411 -277 4 -175 191 -477
397 -641 44 -35 64 -57 61 -68 -3 -9 -35 -88 -72 -176 -164 -395 -293 -798
-330 -1025 -3 -19 -8 -46 -10 -60 -3 -14 -7 -69 -10 -123 -6 -127 15 -188 89
-262 129 -129 343 -110 445 39 34 50 48 93 56 171 14 142 18 167 46 280 37
147 171 541 228 670 5 11 26 62 47 113 20 51 41 95 45 97 4 3 43 -8 86 -24
143 -53 395 -123 563 -157 363 -73 765 -119 1131 -129 124 -3 140 -1 194 20
60 25 113 68 145 120 10 17 96 233 190 480 224 587 223 576 89 786 -119 186
-416 605 -521 734 -9 11 -48 61 -88 110 -70 88 -125 157 -145 179 -5 6 -44 52
-85 101 -41 50 -77 92 -80 95 -3 3 -34 39 -70 80 -110 128 -168 188 -385 405
-216 215 -308 301 -469 436 -16 13 -34 29 -40 35 -51 48 -400 311 -464 349
-10 6 -57 36 -105 68 -260 170 -645 356 -884 428 -35 11 -93 28 -130 39 -70
21 -219 55 -285 64 -21 4 -53 8 -70 11 -18 3 -51 7 -73 11 -47 6 -423 12 -475
7z"/>
</g>
</svg>
